<svg viewBox="0 0 1000 300" xmlns="http://www.w3.org/2000/svg">
  <!-- Klassische Familie -->
  <g id="classic-family">
    <!-- Mutter -->
    <circle cx="70" cy="60" r="22" stroke="#333" stroke-width="2" fill="none"/>
    <line x1="70" y1="82" x2="70" y2="120" stroke="#333" stroke-width="2"/>
    <line x1="70" y1="95" x2="50" y2="108" stroke="#333" stroke-width="2"/>
    <line x1="70" y1="95" x2="90" y2="108" stroke="#333" stroke-width="2"/>
    <line x1="70" y1="120" x2="55" y2="150" stroke="#333" stroke-width="2"/>
    <line x1="70" y1="120" x2="85" y2="150" stroke="#333" stroke-width="2"/>
    <path d="M 52 42 Q 48 52 52 65" stroke="#333" stroke-width="2" fill="none"/>
    <path d="M 88 42 Q 92 52 88 65" stroke="#333" stroke-width="2" fill="none"/>

    <!-- Vater -->
    <circle cx="140" cy="60" r="22" stroke="#333" stroke-width="2" fill="none"/>
    <line x1="140" y1="82" x2="140" y2="120" stroke="#333" stroke-width="2"/>
    <line x1="140" y1="95" x2="120" y2="108" stroke="#333" stroke-width="2"/>
    <line x1="140" y1="95" x2="160" y2="108" stroke="#333" stroke-width="2"/>
    <line x1="140" y1="120" x2="125" y2="150" stroke="#333" stroke-width="2"/>
    <line x1="140" y1="120" x2="155" y2="150" stroke="#333" stroke-width="2"/>

    <!-- Sohn -->
    <circle cx="180" cy="75" r="16" stroke="#333" stroke-width="2" fill="none"/>
    <line x1="180" y1="91" x2="180" y2="125" stroke="#333" stroke-width="2"/>
    <line x1="180" y1="102" x2="165" y2="115" stroke="#333" stroke-width="2"/>
    <line x1="180" y1="102" x2="195" y2="115" stroke="#333" stroke-width="2"/>
    <line x1="180" y1="125" x2="170" y2="150" stroke="#333" stroke-width="2"/>
    <line x1="180" y1="125" x2="190" y2="150" stroke="#333" stroke-width="2"/>

    <!-- Tochter -->
    <circle cx="210" cy="75" r="16" stroke="#333" stroke-width="2" fill="none"/>
    <line x1="210" y1="91" x2="210" y2="125" stroke="#333" stroke-width="2"/>
    <line x1="210" y1="102" x2="195" y2="115" stroke="#333" stroke-width="2"/>
    <line x1="210" y1="102" x2="225" y2="115" stroke="#333" stroke-width="2"/>
    <line x1="210" y1="125" x2="200" y2="150" stroke="#333" stroke-width="2"/>
    <line x1="210" y1="125" x2="220" y2="150" stroke="#333" stroke-width="2"/>
    <path d="M 200 62 Q 196 72 200 85" stroke="#333" stroke-width="2" fill="none"/>
    <path d="M 220 62 Q 224 72 220 85" stroke="#333" stroke-width="2" fill="none"/>

  </g>

  <!-- Schwules Ehepaar mit Kindern -->
  <g id="gay-family">
    <!-- Vater 1 -->
    <circle cx="350" cy="60" r="22" stroke="#E63946" stroke-width="2" fill="none"/>
    <line x1="350" y1="82" x2="350" y2="120" stroke="#E63946" stroke-width="2"/>
    <line x1="350" y1="95" x2="330" y2="108" stroke="#E63946" stroke-width="2"/>
    <line x1="350" y1="95" x2="370" y2="108" stroke="#E63946" stroke-width="2"/>
    <line x1="350" y1="120" x2="335" y2="150" stroke="#E63946" stroke-width="2"/>
    <line x1="350" y1="120" x2="365" y2="150" stroke="#E63946" stroke-width="2"/>

    <!-- Vater 2 -->
    <circle cx="420" cy="60" r="22" stroke="#E63946" stroke-width="2" fill="none"/>
    <line x1="420" y1="82" x2="420" y2="120" stroke="#E63946" stroke-width="2"/>
    <line x1="420" y1="95" x2="400" y2="108" stroke="#E63946" stroke-width="2"/>
    <line x1="420" y1="95" x2="440" y2="108" stroke="#E63946" stroke-width="2"/>
    <line x1="420" y1="120" x2="405" y2="150" stroke="#E63946" stroke-width="2"/>
    <line x1="420" y1="120" x2="435" y2="150" stroke="#E63946" stroke-width="2"/>

    <!-- Sohn -->
    <circle cx="370" cy="75" r="16" stroke="#E63946" stroke-width="2" fill="none"/>
    <line x1="370" y1="91" x2="370" y2="125" stroke="#E63946" stroke-width="2"/>
    <line x1="370" y1="102" x2="355" y2="115" stroke="#E63946" stroke-width="2"/>
    <line x1="370" y1="102" x2="385" y2="115" stroke="#E63946" stroke-width="2"/>
    <line x1="370" y1="125" x2="360" y2="150" stroke="#E63946" stroke-width="2"/>
    <line x1="370" y1="125" x2="380" y2="150" stroke="#E63946" stroke-width="2"/>

    <!-- Tochter -->
    <circle cx="400" cy="75" r="16" stroke="#E63946" stroke-width="2" fill="none"/>
    <line x1="400" y1="91" x2="400" y2="125" stroke="#E63946" stroke-width="2"/>
    <line x1="400" y1="102" x2="385" y2="115" stroke="#E63946" stroke-width="2"/>
    <line x1="400" y1="102" x2="415" y2="115" stroke="#E63946" stroke-width="2"/>
    <line x1="400" y1="125" x2="390" y2="150" stroke="#E63946" stroke-width="2"/>
    <line x1="400" y1="125" x2="410" y2="150" stroke="#E63946" stroke-width="2"/>
    <path d="M 390 62 Q 386 72 390 85" stroke="#E63946" stroke-width="2" fill="none"/>
    <path d="M 410 62 Q 414 72 410 85" stroke="#E63946" stroke-width="2" fill="none"/>

  </g>

  <!-- Großeltern mit Enkel -->
  <g id="grandparents-family">
    <!-- Opa -->
    <circle cx="630" cy="55" r="24" stroke="#1D3557" stroke-width="2" fill="none"/>
    <line x1="630" y1="79" x2="630" y2="120" stroke="#1D3557" stroke-width="2"/>
    <line x1="630" y1="95" x2="608" y2="110" stroke="#1D3557" stroke-width="2"/>
    <line x1="630" y1="95" x2="652" y2="110" stroke="#1D3557" stroke-width="2"/>
    <line x1="630" y1="120" x2="610" y2="150" stroke="#1D3557" stroke-width="2"/>
    <line x1="630" y1="120" x2="650" y2="150" stroke="#1D3557" stroke-width="2"/>
    <!-- Bart -->
    <path d="M 618 70 Q 630 73 642 70" stroke="#1D3557" stroke-width="1.5" fill="none"/>

    <!-- Oma -->
    <circle cx="710" cy="55" r="24" stroke="#1D3557" stroke-width="2" fill="none"/>
    <line x1="710" y1="79" x2="710" y2="120" stroke="#1D3557" stroke-width="2"/>
    <line x1="710" y1="95" x2="688" y2="110" stroke="#1D3557" stroke-width="2"/>
    <line x1="710" y1="95" x2="732" y2="110" stroke="#1D3557" stroke-width="2"/>
    <line x1="710" y1="120" x2="690" y2="150" stroke="#1D3557" stroke-width="2"/>
    <line x1="710" y1="120" x2="730" y2="150" stroke="#1D3557" stroke-width="2"/>
    <!-- Lange Haare -->
    <path d="M 694 35 Q 690 45 694 60" stroke="#1D3557" stroke-width="2" fill="none"/>
    <path d="M 726 35 Q 730 45 726 60" stroke="#1D3557" stroke-width="2" fill="none"/>

    <!-- Enkel -->
    <circle cx="670" cy="85" r="16" stroke="#1D3557" stroke-width="2" fill="none"/>
    <line x1="670" y1="101" x2="670" y2="135" stroke="#1D3557" stroke-width="2"/>
    <line x1="670" y1="112" x2="655" y2="125" stroke="#1D3557" stroke-width="2"/>
    <line x1="670" y1="112" x2="685" y2="125" stroke="#1D3557" stroke-width="2"/>
    <line x1="670" y1="135" x2="660" y2="160" stroke="#1D3557" stroke-width="2"/>
    <line x1="670" y1="135" x2="680" y2="160" stroke="#1D3557" stroke-width="2"/>

  </g>

  <!-- Alleinerziehend mit Kind -->
  <g id="single-parent-family">
    <!-- Mutter/Vater -->
    <circle cx="880" cy="60" r="22" stroke="#457B9D" stroke-width="2" fill="none"/>
    <line x1="880" y1="82" x2="880" y2="120" stroke="#457B9D" stroke-width="2"/>
    <line x1="880" y1="95" x2="860" y2="108" stroke="#457B9D" stroke-width="2"/>
    <line x1="880" y1="95" x2="900" y2="108" stroke="#457B9D" stroke-width="2"/>
    <line x1="880" y1="120" x2="865" y2="150" stroke="#457B9D" stroke-width="2"/>
    <line x1="880" y1="120" x2="895" y2="150" stroke="#457B9D" stroke-width="2"/>
    <path d="M 862 42 Q 858 52 862 65" stroke="#457B9D" stroke-width="2" fill="none"/>
    <path d="M 898 42 Q 902 52 898 65" stroke="#457B9D" stroke-width="2" fill="none"/>

    <!-- Kind -->
    <circle cx="920" cy="80" r="16" stroke="#457B9D" stroke-width="2" fill="none"/>
    <line x1="920" y1="96" x2="920" y2="130" stroke="#457B9D" stroke-width="2"/>
    <line x1="920" y1="107" x2="905" y2="120" stroke="#457B9D" stroke-width="2"/>
    <line x1="920" y1="107" x2="935" y2="120" stroke="#457B9D" stroke-width="2"/>
    <line x1="920" y1="130" x2="910" y2="155" stroke="#457B9D" stroke-width="2"/>
    <line x1="920" y1="130" x2="930" y2="155" stroke="#457B9D" stroke-width="2"/>

  </g>
</svg>